<svg width="218" height="58" viewBox="0 0 218 58" fill="none" xmlns="http://www.w3.org/2000/svg">
<rect x="2.5" y="2.5" width="213" height="53" rx="7.5" fill="url(#paint0_linear_104_68)" stroke="#F6F7EB" stroke-width="5"/>
<path d="M65.1782 39L61.1742 31.928H59.4582V39H55.8182V20.852H62.6302C64.0342 20.852 65.2302 21.1033 66.2182 21.606C67.2062 22.0913 67.9429 22.7587 68.4282 23.608C68.9309 24.44 69.1822 25.376 69.1822 26.416C69.1822 27.612 68.8356 28.6953 68.1422 29.666C67.4489 30.6193 66.4176 31.278 65.0482 31.642L69.3902 39H65.1782ZM59.4582 29.198H62.5002C63.4882 29.198 64.2249 28.964 64.7102 28.496C65.1956 28.0107 65.4382 27.3433 65.4382 26.494C65.4382 25.662 65.1956 25.0207 64.7102 24.57C64.2249 24.102 63.4882 23.868 62.5002 23.868H59.4582V29.198ZM86.3845 31.486C86.3845 32.006 86.3498 32.474 86.2805 32.89H75.7505C75.8371 33.93 76.2011 34.7447 76.8425 35.334C77.4838 35.9233 78.2725 36.218 79.2085 36.218C80.5605 36.218 81.5225 35.6373 82.0945 34.476H86.0205C85.6045 35.8627 84.8071 37.0067 83.6285 37.908C82.4498 38.792 81.0025 39.234 79.2865 39.234C77.8998 39.234 76.6518 38.9307 75.5425 38.324C74.4505 37.7 73.5925 36.8247 72.9685 35.698C72.3618 34.5713 72.0585 33.2713 72.0585 31.798C72.0585 30.3073 72.3618 28.9987 72.9685 27.872C73.5751 26.7453 74.4245 25.8787 75.5165 25.272C76.6085 24.6653 77.8651 24.362 79.2865 24.362C80.6558 24.362 81.8778 24.6567 82.9525 25.246C84.0445 25.8353 84.8851 26.676 85.4745 27.768C86.0811 28.8427 86.3845 30.082 86.3845 31.486ZM82.6145 30.446C82.5971 29.51 82.2591 28.7647 81.6005 28.21C80.9418 27.638 80.1358 27.352 79.1825 27.352C78.2811 27.352 77.5185 27.6293 76.8945 28.184C76.2878 28.7213 75.9151 29.4753 75.7765 30.446H82.6145ZM95.0733 39.234C93.8947 39.234 92.8373 39.026 91.9013 38.61C90.9653 38.1767 90.22 37.596 89.6653 36.868C89.128 36.14 88.8333 35.334 88.7813 34.45H92.4473C92.5167 35.0047 92.7853 35.464 93.2533 35.828C93.7387 36.192 94.3367 36.374 95.0473 36.374C95.7407 36.374 96.278 36.2353 96.6593 35.958C97.058 35.6807 97.2573 35.3253 97.2573 34.892C97.2573 34.424 97.0147 34.0773 96.5293 33.852C96.0613 33.6093 95.3073 33.3493 94.2673 33.072C93.1927 32.812 92.3087 32.5433 91.6153 32.266C90.9393 31.9887 90.35 31.564 89.8473 30.992C89.362 30.42 89.1193 29.6487 89.1193 28.678C89.1193 27.8807 89.3447 27.1527 89.7953 26.494C90.2633 25.8353 90.922 25.3153 91.7713 24.934C92.638 24.5527 93.652 24.362 94.8133 24.362C96.5293 24.362 97.8987 24.7953 98.9213 25.662C99.944 26.5113 100.507 27.664 100.611 29.12H97.1273C97.0753 28.548 96.8327 28.0973 96.3993 27.768C95.9833 27.4213 95.42 27.248 94.7093 27.248C94.0507 27.248 93.5393 27.3693 93.1753 27.612C92.8287 27.8547 92.6553 28.1927 92.6553 28.626C92.6553 29.1113 92.898 29.484 93.3833 29.744C93.8687 29.9867 94.6227 30.238 95.6453 30.498C96.6853 30.758 97.5433 31.0267 98.2193 31.304C98.8953 31.5813 99.476 32.0147 99.9613 32.604C100.464 33.176 100.724 33.9387 100.741 34.892C100.741 35.724 100.507 36.4693 100.039 37.128C99.5887 37.7867 98.93 38.3067 98.0633 38.688C97.214 39.052 96.2173 39.234 95.0733 39.234ZM117.847 24.596V39H114.181V37.18C113.713 37.804 113.098 38.298 112.335 38.662C111.59 39.0087 110.775 39.182 109.891 39.182C108.765 39.182 107.768 38.948 106.901 38.48C106.035 37.9947 105.35 37.2927 104.847 36.374C104.362 35.438 104.119 34.3287 104.119 33.046V24.596H107.759V32.526C107.759 33.67 108.045 34.554 108.617 35.178C109.189 35.7847 109.969 36.088 110.957 36.088C111.963 36.088 112.751 35.7847 113.323 35.178C113.895 34.554 114.181 33.67 114.181 32.526V24.596H117.847ZM139.847 24.388C141.615 24.388 143.036 24.934 144.111 26.026C145.203 27.1007 145.749 28.6087 145.749 30.55V39H142.109V31.044C142.109 29.9173 141.823 29.0593 141.251 28.47C140.679 27.8633 139.899 27.56 138.911 27.56C137.923 27.56 137.134 27.8633 136.545 28.47C135.973 29.0593 135.687 29.9173 135.687 31.044V39H132.047V31.044C132.047 29.9173 131.761 29.0593 131.189 28.47C130.617 27.8633 129.837 27.56 128.849 27.56C127.843 27.56 127.046 27.8633 126.457 28.47C125.885 29.0593 125.599 29.9173 125.599 31.044V39H121.959V24.596H125.599V26.338C126.067 25.7313 126.665 25.2547 127.393 24.908C128.138 24.5613 128.953 24.388 129.837 24.388C130.963 24.388 131.969 24.6307 132.853 25.116C133.737 25.584 134.421 26.26 134.907 27.144C135.375 26.312 136.051 25.6447 136.935 25.142C137.836 24.6393 138.807 24.388 139.847 24.388ZM163.113 31.486C163.113 32.006 163.078 32.474 163.009 32.89H152.479C152.566 33.93 152.93 34.7447 153.571 35.334C154.212 35.9233 155.001 36.218 155.937 36.218C157.289 36.218 158.251 35.6373 158.823 34.476H162.749C162.333 35.8627 161.536 37.0067 160.357 37.908C159.178 38.792 157.731 39.234 156.015 39.234C154.628 39.234 153.38 38.9307 152.271 38.324C151.179 37.7 150.321 36.8247 149.697 35.698C149.09 34.5713 148.787 33.2713 148.787 31.798C148.787 30.3073 149.09 28.9987 149.697 27.872C150.304 26.7453 151.153 25.8787 152.245 25.272C153.337 24.6653 154.594 24.362 156.015 24.362C157.384 24.362 158.606 24.6567 159.681 25.246C160.773 25.8353 161.614 26.676 162.203 27.768C162.81 28.8427 163.113 30.082 163.113 31.486ZM159.343 30.446C159.326 29.51 158.988 28.7647 158.329 28.21C157.67 27.638 156.864 27.352 155.911 27.352C155.01 27.352 154.247 27.6293 153.623 28.184C153.016 28.7213 152.644 29.4753 152.505 30.446H159.343Z" fill="white"/>
<defs>
<linearGradient id="paint0_linear_104_68" x1="0" y1="0" x2="0" y2="75.5" gradientUnits="userSpaceOnUse">
<stop stop-color="#A8BA9A"/>
<stop offset="0.4551" stop-color="#7E8C74"/>
<stop offset="1" stop-color="#4C5446"/>
</linearGradient>
</defs>
</svg>
